<svg xmlns="http://www.w3.org/2000/svg" version="1.1" xmlns:xlink="http://www.w3.org/1999/xlink" xmlns:svgjs="http://svgjs.com/svgjs" width="1440" height="560" preserveAspectRatio="none" viewBox="0 0 1440 560"><g mask="url(&quot;#SvgjsMask1052&quot;)" fill="none"><path d="M1440 0L1145.76 0L1440 36.76z" fill="rgba(255, 255, 255, .1)"></path><path d="M1145.76 0L1440 36.76L1440 160.68L827.63 0z" fill="rgba(255, 255, 255, .075)"></path><path d="M827.63 0L1440 160.68L1440 169.12L603.35 0z" fill="rgba(255, 255, 255, .05)"></path><path d="M603.35 0L1440 169.12L1440 331.88L588.8000000000001 0z" fill="rgba(255, 255, 255, .025)"></path><path d="M0 560L688.39 560L0 520.14z" fill="rgba(0, 0, 0, .1)"></path><path d="M0 520.14L688.39 560L906.56 560L0 411.45z" fill="rgba(0, 0, 0, .075)"></path><path d="M0 411.45L906.56 560L1224.9299999999998 560L0 164.06z" fill="rgba(0, 0, 0, .05)"></path><path d="M0 164.06L1224.9299999999998 560L1357.0699999999997 560L0 114.89z" fill="rgba(0, 0, 0, .025)"></path></g><defs><mask id="SvgjsMask1052"><rect width="1440" height="560" fill="#ffffff"></rect></mask></defs></svg>